<mxfile host="app.diagrams.net" modified="2022-10-27T14:13:11.049Z" agent="5.0 (Windows NT 10.0; WOW64) AppleWebKit/537.36 (KHTML, like Gecko) Chrome/104.0.5112.124 YaBrowser/22.9.4.866 Yowser/2.5 Safari/537.36" etag="U36-H7uD4FzyKQGZxs5T" version="20.5.1" type="github">
  <diagram id="bFoL-frkQB1pndfRTyYJ" name="Страница 1">
    <mxGraphModel dx="1374" dy="789" grid="1" gridSize="10" guides="1" tooltips="1" connect="1" arrows="1" fold="1" page="1" pageScale="1" pageWidth="827" pageHeight="1169" math="0" shadow="0">
      <root>
        <mxCell id="0" />
        <mxCell id="1" parent="0" />
        <mxCell id="4i3I_lf2-mHoZY_5bq3r-1" value="" style="rounded=0;whiteSpace=wrap;html=1;strokeWidth=3;" parent="1" vertex="1">
          <mxGeometry x="350" y="136" width="970" height="550" as="geometry" />
        </mxCell>
        <mxCell id="4i3I_lf2-mHoZY_5bq3r-83" value="" style="verticalLabelPosition=bottom;verticalAlign=top;html=1;shape=mxgraph.basic.patternFillRect;fillStyle=diag;step=5;fillStrokeWidth=0.2;fillStrokeColor=#dddddd;strokeColor=#000066;strokeWidth=2;" parent="1" vertex="1">
          <mxGeometry x="570" y="560" width="410" height="120" as="geometry" />
        </mxCell>
        <mxCell id="4i3I_lf2-mHoZY_5bq3r-82" value="" style="verticalLabelPosition=bottom;verticalAlign=top;html=1;shape=mxgraph.basic.patternFillRect;fillStyle=diag;step=5;fillStrokeWidth=0.2;fillStrokeColor=#dddddd;strokeColor=#0000CC;strokeWidth=2;" parent="1" vertex="1">
          <mxGeometry x="360" y="270" width="620" height="90" as="geometry" />
        </mxCell>
        <mxCell id="4i3I_lf2-mHoZY_5bq3r-98" value="ТВ" style="whiteSpace=wrap;html=1;align=center;" parent="1" vertex="1">
          <mxGeometry x="700" y="389" width="230" height="130" as="geometry" />
        </mxCell>
        <mxCell id="uG7apw07nVC9XQdVxjHO-6" style="edgeStyle=orthogonalEdgeStyle;rounded=0;orthogonalLoop=1;jettySize=auto;html=1;entryX=1;entryY=0.5;entryDx=0;entryDy=0;" edge="1" parent="1" source="4i3I_lf2-mHoZY_5bq3r-2" target="4i3I_lf2-mHoZY_5bq3r-8">
          <mxGeometry relative="1" as="geometry" />
        </mxCell>
        <mxCell id="4i3I_lf2-mHoZY_5bq3r-2" value="" style="verticalLabelPosition=bottom;verticalAlign=top;html=1;shape=mxgraph.basic.polygon;polyCoords=[[0.25,0],[0.75,0],[1,0.25],[1,0.75],[0.75,1],[0.25,1],[0,0.75],[0,0.25]];polyline=0;" parent="1" vertex="1">
          <mxGeometry x="580" y="580" width="20" height="20" as="geometry" />
        </mxCell>
        <mxCell id="uG7apw07nVC9XQdVxjHO-5" style="edgeStyle=orthogonalEdgeStyle;rounded=0;orthogonalLoop=1;jettySize=auto;html=1;entryX=1;entryY=0.5;entryDx=0;entryDy=0;" edge="1" parent="1" source="4i3I_lf2-mHoZY_5bq3r-4" target="4i3I_lf2-mHoZY_5bq3r-27">
          <mxGeometry relative="1" as="geometry" />
        </mxCell>
        <mxCell id="4i3I_lf2-mHoZY_5bq3r-4" value="" style="verticalLabelPosition=bottom;verticalAlign=top;html=1;shape=mxgraph.basic.polygon;polyCoords=[[0.25,0],[0.75,0],[1,0.25],[1,0.75],[0.75,1],[0.25,1],[0,0.75],[0,0.25]];polyline=0;" parent="1" vertex="1">
          <mxGeometry x="600" y="580" width="20" height="20" as="geometry" />
        </mxCell>
        <mxCell id="uG7apw07nVC9XQdVxjHO-4" style="edgeStyle=orthogonalEdgeStyle;rounded=0;orthogonalLoop=1;jettySize=auto;html=1;entryX=1;entryY=0.5;entryDx=0;entryDy=0;" edge="1" parent="1" source="4i3I_lf2-mHoZY_5bq3r-5" target="4i3I_lf2-mHoZY_5bq3r-31">
          <mxGeometry relative="1" as="geometry" />
        </mxCell>
        <mxCell id="4i3I_lf2-mHoZY_5bq3r-5" value="" style="verticalLabelPosition=bottom;verticalAlign=top;html=1;shape=mxgraph.basic.polygon;polyCoords=[[0.25,0],[0.75,0],[1,0.25],[1,0.75],[0.75,1],[0.25,1],[0,0.75],[0,0.25]];polyline=0;" parent="1" vertex="1">
          <mxGeometry x="620" y="580" width="20" height="20" as="geometry" />
        </mxCell>
        <mxCell id="4i3I_lf2-mHoZY_5bq3r-6" value="ПК" style="swimlane;fontStyle=0;childLayout=stackLayout;horizontal=1;startSize=26;horizontalStack=0;resizeParent=1;resizeParentMax=0;resizeLast=0;collapsible=1;marginBottom=0;align=center;fontSize=14;" parent="1" vertex="1">
          <mxGeometry x="60" y="474" width="160" height="86" as="geometry" />
        </mxCell>
        <mxCell id="4i3I_lf2-mHoZY_5bq3r-8" value="Power" style="text;strokeColor=none;fillColor=none;spacingLeft=4;spacingRight=4;overflow=hidden;rotatable=0;points=[[0,0.5],[1,0.5]];portConstraint=eastwest;fontSize=12;" parent="4i3I_lf2-mHoZY_5bq3r-6" vertex="1">
          <mxGeometry y="26" width="160" height="30" as="geometry" />
        </mxCell>
        <mxCell id="4i3I_lf2-mHoZY_5bq3r-13" value="LAN" style="text;strokeColor=none;fillColor=none;spacingLeft=4;spacingRight=4;overflow=hidden;rotatable=0;points=[[0,0.5],[1,0.5]];portConstraint=eastwest;fontSize=12;" parent="4i3I_lf2-mHoZY_5bq3r-6" vertex="1">
          <mxGeometry y="56" width="160" height="30" as="geometry" />
        </mxCell>
        <mxCell id="uG7apw07nVC9XQdVxjHO-16" style="edgeStyle=orthogonalEdgeStyle;rounded=0;orthogonalLoop=1;jettySize=auto;html=1;entryX=1.019;entryY=0.3;entryDx=0;entryDy=0;entryPerimeter=0;" edge="1" parent="1" source="4i3I_lf2-mHoZY_5bq3r-15" target="uG7apw07nVC9XQdVxjHO-14">
          <mxGeometry relative="1" as="geometry" />
        </mxCell>
        <mxCell id="4i3I_lf2-mHoZY_5bq3r-15" value="" style="verticalLabelPosition=bottom;verticalAlign=top;html=1;shape=mxgraph.basic.polygon;polyCoords=[[0.25,0],[0.75,0],[1,0.25],[1,0.75],[0.75,1],[0.25,1],[0,0.75],[0,0.25]];polyline=0;" parent="1" vertex="1">
          <mxGeometry x="680" y="580" width="20" height="20" as="geometry" />
        </mxCell>
        <mxCell id="4i3I_lf2-mHoZY_5bq3r-22" value="Роутер" style="swimlane;fontStyle=0;childLayout=stackLayout;horizontal=1;startSize=26;horizontalStack=0;resizeParent=1;resizeParentMax=0;resizeLast=0;collapsible=1;marginBottom=0;align=center;fontSize=14;" parent="1" vertex="1">
          <mxGeometry x="260" y="680" width="80" height="176" as="geometry" />
        </mxCell>
        <mxCell id="4i3I_lf2-mHoZY_5bq3r-23" value="Power" style="text;strokeColor=none;fillColor=none;spacingLeft=4;spacingRight=4;overflow=hidden;rotatable=0;points=[[0,0.5],[1,0.5]];portConstraint=eastwest;fontSize=12;" parent="4i3I_lf2-mHoZY_5bq3r-22" vertex="1">
          <mxGeometry y="26" width="80" height="30" as="geometry" />
        </mxCell>
        <mxCell id="4i3I_lf2-mHoZY_5bq3r-24" value="LAN 1" style="text;strokeColor=none;fillColor=none;spacingLeft=4;spacingRight=4;overflow=hidden;rotatable=0;points=[[0,0.5],[1,0.5]];portConstraint=eastwest;fontSize=12;" parent="4i3I_lf2-mHoZY_5bq3r-22" vertex="1">
          <mxGeometry y="56" width="80" height="30" as="geometry" />
        </mxCell>
        <mxCell id="4i3I_lf2-mHoZY_5bq3r-66" value="LAN 2" style="text;strokeColor=none;fillColor=none;spacingLeft=4;spacingRight=4;overflow=hidden;rotatable=0;points=[[0,0.5],[1,0.5]];portConstraint=eastwest;fontSize=12;" parent="4i3I_lf2-mHoZY_5bq3r-22" vertex="1">
          <mxGeometry y="86" width="80" height="30" as="geometry" />
        </mxCell>
        <mxCell id="4i3I_lf2-mHoZY_5bq3r-68" value="LAN 3" style="text;strokeColor=none;fillColor=none;spacingLeft=4;spacingRight=4;overflow=hidden;rotatable=0;points=[[0,0.5],[1,0.5]];portConstraint=eastwest;fontSize=12;" parent="4i3I_lf2-mHoZY_5bq3r-22" vertex="1">
          <mxGeometry y="116" width="80" height="30" as="geometry" />
        </mxCell>
        <mxCell id="uG7apw07nVC9XQdVxjHO-1" value="LAN 4" style="text;strokeColor=none;fillColor=none;spacingLeft=4;spacingRight=4;overflow=hidden;rotatable=0;points=[[0,0.5],[1,0.5]];portConstraint=eastwest;fontSize=12;" vertex="1" parent="4i3I_lf2-mHoZY_5bq3r-22">
          <mxGeometry y="146" width="80" height="30" as="geometry" />
        </mxCell>
        <mxCell id="4i3I_lf2-mHoZY_5bq3r-26" value="Монитор" style="swimlane;fontStyle=0;childLayout=stackLayout;horizontal=1;startSize=26;horizontalStack=0;resizeParent=1;resizeParentMax=0;resizeLast=0;collapsible=1;marginBottom=0;align=center;fontSize=14;" parent="1" vertex="1">
          <mxGeometry x="60" y="400" width="160" height="56" as="geometry" />
        </mxCell>
        <mxCell id="4i3I_lf2-mHoZY_5bq3r-27" value="Power" style="text;strokeColor=none;fillColor=none;spacingLeft=4;spacingRight=4;overflow=hidden;rotatable=0;points=[[0,0.5],[1,0.5]];portConstraint=eastwest;fontSize=12;" parent="4i3I_lf2-mHoZY_5bq3r-26" vertex="1">
          <mxGeometry y="26" width="160" height="30" as="geometry" />
        </mxCell>
        <mxCell id="4i3I_lf2-mHoZY_5bq3r-30" value="Звук" style="swimlane;fontStyle=0;childLayout=stackLayout;horizontal=1;startSize=26;horizontalStack=0;resizeParent=1;resizeParentMax=0;resizeLast=0;collapsible=1;marginBottom=0;align=center;fontSize=14;" parent="1" vertex="1">
          <mxGeometry x="60" y="333" width="160" height="56" as="geometry" />
        </mxCell>
        <mxCell id="4i3I_lf2-mHoZY_5bq3r-31" value="Power" style="text;strokeColor=none;fillColor=none;spacingLeft=4;spacingRight=4;overflow=hidden;rotatable=0;points=[[0,0.5],[1,0.5]];portConstraint=eastwest;fontSize=12;" parent="4i3I_lf2-mHoZY_5bq3r-30" vertex="1">
          <mxGeometry y="26" width="160" height="30" as="geometry" />
        </mxCell>
        <mxCell id="4i3I_lf2-mHoZY_5bq3r-59" style="edgeStyle=orthogonalEdgeStyle;rounded=0;orthogonalLoop=1;jettySize=auto;html=1;" parent="1" source="4i3I_lf2-mHoZY_5bq3r-39" target="4i3I_lf2-mHoZY_5bq3r-49" edge="1">
          <mxGeometry relative="1" as="geometry">
            <Array as="points">
              <mxPoint x="750" y="290" />
              <mxPoint x="910" y="290" />
            </Array>
          </mxGeometry>
        </mxCell>
        <mxCell id="4i3I_lf2-mHoZY_5bq3r-39" value="TV" style="whiteSpace=wrap;html=1;align=center;" parent="1" vertex="1">
          <mxGeometry x="730" y="106" width="40" height="30" as="geometry" />
        </mxCell>
        <mxCell id="4i3I_lf2-mHoZY_5bq3r-77" style="edgeStyle=orthogonalEdgeStyle;rounded=0;orthogonalLoop=1;jettySize=auto;html=1;" parent="1" source="4i3I_lf2-mHoZY_5bq3r-40" target="4i3I_lf2-mHoZY_5bq3r-22" edge="1">
          <mxGeometry relative="1" as="geometry">
            <Array as="points">
              <mxPoint x="795" y="80" />
              <mxPoint x="300" y="80" />
            </Array>
          </mxGeometry>
        </mxCell>
        <mxCell id="4i3I_lf2-mHoZY_5bq3r-40" value="LAN IN" style="whiteSpace=wrap;html=1;align=center;" parent="1" vertex="1">
          <mxGeometry x="770" y="106" width="50" height="30" as="geometry" />
        </mxCell>
        <mxCell id="4i3I_lf2-mHoZY_5bq3r-47" value="" style="verticalLabelPosition=bottom;verticalAlign=top;html=1;shape=mxgraph.basic.polygon;polyCoords=[[0.25,0],[0.75,0],[1,0.25],[1,0.75],[0.75,1],[0.25,1],[0,0.75],[0,0.25]];polyline=0;" parent="1" vertex="1">
          <mxGeometry x="860" y="416" width="20" height="20" as="geometry" />
        </mxCell>
        <mxCell id="4i3I_lf2-mHoZY_5bq3r-48" value="" style="verticalLabelPosition=bottom;verticalAlign=top;html=1;shape=mxgraph.basic.polygon;polyCoords=[[0.25,0],[0.75,0],[1,0.25],[1,0.75],[0.75,1],[0.25,1],[0,0.75],[0,0.25]];polyline=0;" parent="1" vertex="1">
          <mxGeometry x="880" y="416" width="20" height="20" as="geometry" />
        </mxCell>
        <mxCell id="4i3I_lf2-mHoZY_5bq3r-49" value="" style="verticalLabelPosition=bottom;verticalAlign=top;html=1;shape=mxgraph.basic.polygon;polyCoords=[[0.25,0],[0.75,0],[1,0.25],[1,0.75],[0.75,1],[0.25,1],[0,0.75],[0,0.25]];polyline=0;" parent="1" vertex="1">
          <mxGeometry x="900" y="416" width="20" height="20" as="geometry" />
        </mxCell>
        <mxCell id="4i3I_lf2-mHoZY_5bq3r-74" style="edgeStyle=orthogonalEdgeStyle;rounded=0;orthogonalLoop=1;jettySize=auto;html=1;" parent="1" source="4i3I_lf2-mHoZY_5bq3r-55" target="4i3I_lf2-mHoZY_5bq3r-47" edge="1">
          <mxGeometry relative="1" as="geometry">
            <Array as="points">
              <mxPoint x="870" y="121" />
            </Array>
          </mxGeometry>
        </mxCell>
        <mxCell id="4i3I_lf2-mHoZY_5bq3r-55" value="Power" style="whiteSpace=wrap;html=1;align=center;" parent="1" vertex="1">
          <mxGeometry x="820" y="106" width="40" height="30" as="geometry" />
        </mxCell>
        <mxCell id="4i3I_lf2-mHoZY_5bq3r-60" value="" style="verticalLabelPosition=bottom;verticalAlign=top;html=1;shape=mxgraph.basic.polygon;polyCoords=[[0.25,0],[0.75,0],[1,0.25],[1,0.75],[0.75,1],[0.25,1],[0,0.75],[0,0.25]];polyline=0;" parent="1" vertex="1">
          <mxGeometry x="370" y="323" width="20" height="20" as="geometry" />
        </mxCell>
        <mxCell id="4i3I_lf2-mHoZY_5bq3r-61" value="" style="verticalLabelPosition=bottom;verticalAlign=top;html=1;shape=mxgraph.basic.polygon;polyCoords=[[0.25,0],[0.75,0],[1,0.25],[1,0.75],[0.75,1],[0.25,1],[0,0.75],[0,0.25]];polyline=0;" parent="1" vertex="1">
          <mxGeometry x="390" y="323" width="20" height="20" as="geometry" />
        </mxCell>
        <mxCell id="4i3I_lf2-mHoZY_5bq3r-62" value="" style="verticalLabelPosition=bottom;verticalAlign=top;html=1;shape=mxgraph.basic.polygon;polyCoords=[[0.25,0],[0.75,0],[1,0.25],[1,0.75],[0.75,1],[0.25,1],[0,0.75],[0,0.25]];polyline=0;" parent="1" vertex="1">
          <mxGeometry x="410" y="323" width="20" height="20" as="geometry" />
        </mxCell>
        <mxCell id="4i3I_lf2-mHoZY_5bq3r-70" style="edgeStyle=orthogonalEdgeStyle;rounded=0;orthogonalLoop=1;jettySize=auto;html=1;entryX=0.333;entryY=0.975;entryDx=0;entryDy=0;entryPerimeter=0;" parent="1" source="4i3I_lf2-mHoZY_5bq3r-24" target="4i3I_lf2-mHoZY_5bq3r-48" edge="1">
          <mxGeometry relative="1" as="geometry" />
        </mxCell>
        <mxCell id="4i3I_lf2-mHoZY_5bq3r-71" value="Для ТВ&lt;br&gt;Антенна \ LAN \ Power \ HDMI" style="text;html=1;strokeColor=none;fillColor=none;align=center;verticalAlign=middle;whiteSpace=wrap;rounded=0;" parent="1" vertex="1">
          <mxGeometry x="827" y="450" width="140" height="60" as="geometry" />
        </mxCell>
        <mxCell id="4i3I_lf2-mHoZY_5bq3r-72" value="Переключатель \ Power \ Power" style="text;html=1;strokeColor=none;fillColor=none;align=center;verticalAlign=middle;whiteSpace=wrap;rounded=0;" parent="1" vertex="1">
          <mxGeometry x="294" y="283" width="240" height="40" as="geometry" />
        </mxCell>
        <mxCell id="4i3I_lf2-mHoZY_5bq3r-73" value="LAN OUT" style="whiteSpace=wrap;html=1;align=center;" parent="1" vertex="1">
          <mxGeometry x="1140" y="106" width="70" height="30" as="geometry" />
        </mxCell>
        <mxCell id="4i3I_lf2-mHoZY_5bq3r-78" style="edgeStyle=orthogonalEdgeStyle;rounded=0;orthogonalLoop=1;jettySize=auto;html=1;entryX=1;entryY=0.5;entryDx=0;entryDy=0;" parent="1" source="4i3I_lf2-mHoZY_5bq3r-68" target="4i3I_lf2-mHoZY_5bq3r-13" edge="1">
          <mxGeometry relative="1" as="geometry" />
        </mxCell>
        <mxCell id="4i3I_lf2-mHoZY_5bq3r-84" value="" style="verticalLabelPosition=bottom;verticalAlign=top;html=1;shape=mxgraph.basic.patternFillRect;fillStyle=diag;step=5;fillStrokeWidth=0.2;fillStrokeColor=#dddddd;strokeColor=#000066;strokeWidth=2;" parent="1" vertex="1">
          <mxGeometry x="980" y="136" width="340" height="544" as="geometry" />
        </mxCell>
        <mxCell id="4i3I_lf2-mHoZY_5bq3r-86" value="" style="verticalLabelPosition=bottom;verticalAlign=top;html=1;shape=mxgraph.basic.patternFillRect;fillStyle=diag;step=5;fillStrokeWidth=0.2;fillStrokeColor=#dddddd;strokeWidth=2;strokeColor=#000066;" parent="1" vertex="1">
          <mxGeometry x="360" y="525" width="210" height="155" as="geometry" />
        </mxCell>
        <mxCell id="uG7apw07nVC9XQdVxjHO-7" style="edgeStyle=orthogonalEdgeStyle;rounded=0;orthogonalLoop=1;jettySize=auto;html=1;entryX=1;entryY=0.5;entryDx=0;entryDy=0;" edge="1" parent="1" source="4i3I_lf2-mHoZY_5bq3r-87" target="4i3I_lf2-mHoZY_5bq3r-23">
          <mxGeometry relative="1" as="geometry" />
        </mxCell>
        <mxCell id="4i3I_lf2-mHoZY_5bq3r-87" value="" style="verticalLabelPosition=bottom;verticalAlign=top;html=1;shape=mxgraph.basic.polygon;polyCoords=[[0.25,0],[0.75,0],[1,0.25],[1,0.75],[0.75,1],[0.25,1],[0,0.75],[0,0.25]];polyline=0;" parent="1" vertex="1">
          <mxGeometry x="640" y="580" width="20" height="20" as="geometry" />
        </mxCell>
        <mxCell id="4i3I_lf2-mHoZY_5bq3r-89" value="" style="rounded=1;whiteSpace=wrap;html=1;strokeWidth=2;fillWeight=4;hachureGap=8;hachureAngle=45;fillColor=#1ba1e2;sketch=1;" parent="1" vertex="1">
          <mxGeometry x="790" y="140" width="10" height="460" as="geometry" />
        </mxCell>
        <mxCell id="4i3I_lf2-mHoZY_5bq3r-90" value="" style="rounded=1;whiteSpace=wrap;html=1;strokeWidth=2;fillWeight=4;hachureGap=8;hachureAngle=45;fillColor=#1ba1e2;sketch=1;" parent="1" vertex="1">
          <mxGeometry x="430" y="333" width="360" height="10" as="geometry" />
        </mxCell>
        <mxCell id="4i3I_lf2-mHoZY_5bq3r-91" value="" style="rounded=1;whiteSpace=wrap;html=1;strokeWidth=2;fillWeight=4;hachureGap=8;hachureAngle=45;fillColor=#1ba1e2;sketch=1;" parent="1" vertex="1">
          <mxGeometry x="720" y="585" width="70" height="10" as="geometry" />
        </mxCell>
        <mxCell id="4i3I_lf2-mHoZY_5bq3r-92" value="" style="rounded=1;whiteSpace=wrap;html=1;strokeWidth=2;fillWeight=4;hachureGap=8;hachureAngle=45;fillColor=#1ba1e2;sketch=1;" parent="1" vertex="1">
          <mxGeometry x="800" y="421" width="60" height="10" as="geometry" />
        </mxCell>
        <mxCell id="4i3I_lf2-mHoZY_5bq3r-95" value="Роутер" style="whiteSpace=wrap;html=1;align=center;" parent="1" vertex="1">
          <mxGeometry x="575" y="640" width="70" height="30" as="geometry" />
        </mxCell>
        <mxCell id="4i3I_lf2-mHoZY_5bq3r-96" value="ПК" style="whiteSpace=wrap;html=1;align=center;" parent="1" vertex="1">
          <mxGeometry x="520" y="590" width="40" height="80" as="geometry" />
        </mxCell>
        <mxCell id="uG7apw07nVC9XQdVxjHO-8" style="edgeStyle=orthogonalEdgeStyle;rounded=0;orthogonalLoop=1;jettySize=auto;html=1;" edge="1" parent="1" source="4i3I_lf2-mHoZY_5bq3r-101" target="4i3I_lf2-mHoZY_5bq3r-102">
          <mxGeometry relative="1" as="geometry" />
        </mxCell>
        <mxCell id="4i3I_lf2-mHoZY_5bq3r-101" value="" style="verticalLabelPosition=bottom;verticalAlign=top;html=1;shape=mxgraph.basic.polygon;polyCoords=[[0.25,0],[0.75,0],[1,0.25],[1,0.75],[0.75,1],[0.25,1],[0,0.75],[0,0.25]];polyline=0;" parent="1" vertex="1">
          <mxGeometry x="660" y="580" width="20" height="20" as="geometry" />
        </mxCell>
        <mxCell id="4i3I_lf2-mHoZY_5bq3r-102" value="Алиса" style="whiteSpace=wrap;html=1;align=center;" parent="1" vertex="1">
          <mxGeometry x="650" y="490" width="40" height="60" as="geometry" />
        </mxCell>
        <mxCell id="4i3I_lf2-mHoZY_5bq3r-75" style="edgeStyle=orthogonalEdgeStyle;rounded=0;orthogonalLoop=1;jettySize=auto;html=1;" parent="1" source="4i3I_lf2-mHoZY_5bq3r-66" target="4i3I_lf2-mHoZY_5bq3r-73" edge="1">
          <mxGeometry relative="1" as="geometry" />
        </mxCell>
        <mxCell id="uG7apw07nVC9XQdVxjHO-3" style="edgeStyle=orthogonalEdgeStyle;rounded=0;orthogonalLoop=1;jettySize=auto;html=1;" edge="1" parent="1" source="uG7apw07nVC9XQdVxjHO-1">
          <mxGeometry relative="1" as="geometry">
            <mxPoint x="450" y="841" as="targetPoint" />
          </mxGeometry>
        </mxCell>
        <mxCell id="uG7apw07nVC9XQdVxjHO-9" value="" style="verticalLabelPosition=bottom;verticalAlign=top;html=1;shape=mxgraph.basic.polygon;polyCoords=[[0.25,0],[0.75,0],[1,0.25],[1,0.75],[0.75,1],[0.25,1],[0,0.75],[0,0.25]];polyline=0;" vertex="1" parent="1">
          <mxGeometry x="700" y="580" width="20" height="20" as="geometry" />
        </mxCell>
        <mxCell id="uG7apw07nVC9XQdVxjHO-12" value="ТВ Приставка" style="swimlane;fontStyle=0;childLayout=stackLayout;horizontal=1;startSize=26;horizontalStack=0;resizeParent=1;resizeParentMax=0;resizeLast=0;collapsible=1;marginBottom=0;align=center;fontSize=14;" vertex="1" parent="1">
          <mxGeometry x="450" y="800" width="160" height="86" as="geometry" />
        </mxCell>
        <mxCell id="uG7apw07nVC9XQdVxjHO-13" value="LAN" style="text;strokeColor=none;fillColor=none;spacingLeft=4;spacingRight=4;overflow=hidden;rotatable=0;points=[[0,0.5],[1,0.5]];portConstraint=eastwest;fontSize=12;" vertex="1" parent="uG7apw07nVC9XQdVxjHO-12">
          <mxGeometry y="26" width="160" height="30" as="geometry" />
        </mxCell>
        <mxCell id="uG7apw07nVC9XQdVxjHO-14" value="Power" style="text;strokeColor=none;fillColor=none;spacingLeft=4;spacingRight=4;overflow=hidden;rotatable=0;points=[[0,0.5],[1,0.5]];portConstraint=eastwest;fontSize=12;" vertex="1" parent="uG7apw07nVC9XQdVxjHO-12">
          <mxGeometry y="56" width="160" height="30" as="geometry" />
        </mxCell>
      </root>
    </mxGraphModel>
  </diagram>
</mxfile>
